<svg width="15" height="15" viewBox="0 0 15 15" fill="none" xmlns="http://www.w3.org/2000/svg">
<rect x="1.5" y="1.5" width="7.5" height="1.5" fill="black"/>
<rect x="1.5" y="13.5" width="10.5" height="1.5" fill="black"/>
<rect y="3" width="1.5" height="10.5" fill="black"/>
<rect x="12" y="6" width="1.5" height="7.5" fill="black"/>
<rect x="4.5" y="9" width="1.5" height="1.5" fill="black"/>
<rect x="7.5" y="7.5" width="1.5" height="1.5" fill="#2673BB"/>
<rect x="6" y="6" width="1.5" height="1.5" fill="#2673BB"/>
<rect x="4.5" y="7.5" width="3" height="1.5" fill="#2673BB"/>
<rect x="6" y="7.5" width="1.5" height="1.5" fill="#2673BB"/>
<rect x="6" y="6" width="1.5" height="4.5" fill="#2673BB"/>
<rect x="7.5" y="6" width="1.5" height="1.5" fill="#2673BB"/>
<rect x="6" y="6" width="4.5" height="1.5" fill="#2673BB"/>
<rect x="7.5" y="4.5" width="1.5" height="4.5" fill="#2673BB"/>
<rect x="9" y="4.5" width="1.5" height="1.5" fill="#2673BB"/>
<rect x="9" y="3" width="4.5" height="1.5" fill="#2673BB"/>
<rect x="12" y="3" width="1.5" height="1.5" fill="#2673BB"/>
<rect x="10.5" y="1.5" width="4.5" height="1.5" fill="#2673BB"/>
<rect x="7.5" y="4.5" width="4.5" height="1.5" fill="#2673BB"/>
<rect x="9" y="3" width="1.5" height="4.5" fill="#2673BB"/>
<rect x="12" width="1.5" height="4.5" fill="#2673BB"/>
<rect x="12" width="3" height="3" fill="#2673BB"/>
<rect x="12" width="1.5" height="1.5" fill="#2673BB"/>
<rect x="13.5" width="1.5" height="1.5" fill="#2673BB"/>
<rect x="6" y="9" width="1.5" height="1.5" fill="#E5AF70"/>
<rect x="6" y="7.5" width="1.5" height="1.5" fill="#E5AF70"/>
<rect x="4.5" y="7.5" width="1.5" height="1.5" fill="#E5AF70"/>
</svg>
