<svg width="33" height="21" viewBox="0 0 33 21" fill="none" xmlns="http://www.w3.org/2000/svg">
<rect x="9" width="15" height="3" fill="#222222"/>
<rect x="24" y="3" width="3" height="3" fill="#222222"/>
<rect x="27" y="6" width="3" height="3" fill="#222222"/>
<rect x="30" y="9" width="3" height="3" fill="#222222"/>
<rect x="27" y="12" width="3" height="3" fill="#222222"/>
<rect x="24" y="15" width="3" height="3" fill="#222222"/>
<rect x="9" y="18" width="15" height="3" fill="#222222"/>
<rect x="6" y="3" width="3" height="3" fill="#222222"/>
<rect x="3" y="6" width="3" height="3" fill="#222222"/>
<rect y="9" width="3" height="3" fill="#222222"/>
<rect x="3" y="12" width="3" height="3" fill="#222222"/>
<rect x="6" y="15" width="3" height="3" fill="#222222"/>
<rect x="12" y="6" width="9" height="9" fill="#222222"/>
<rect x="18" y="6" width="3" height="3" fill="#222222"/>
<rect x="18" y="7" width="2" height="2" fill="white"/>
<rect x="13" y="5" width="7" height="1" fill="#222222"/>
<rect x="15" y="4" width="3" height="1" fill="#222222"/>
<rect x="13" y="15" width="7" height="1" fill="#222222"/>
<rect x="15" y="16" width="3" height="1" fill="#222222"/>
<rect x="21" y="7" width="1" height="7" fill="#222222"/>
<rect x="22" y="9" width="1" height="3" fill="#222222"/>
<rect x="11" y="7" width="1" height="7" fill="#222222"/>
<rect x="10" y="9" width="1" height="3" fill="#222222"/>
</svg>
