<svg width="35" height="37" viewBox="0 0 35 37" fill="none" xmlns="http://www.w3.org/2000/svg">
<path d="M12 0H22V2H12V0Z" fill="white"/>
<path d="M5 5H27H30V7H5V5Z" fill="white"/>
<path d="M2 7H32V10H2V7Z" fill="white"/>
<path d="M2 10H32V12H2V10Z" fill="white"/>
<path d="M2 12H32V15H2V12Z" fill="white"/>
<path d="M2 15H32V17H17H2V15Z" fill="white"/>
<path d="M0 17H35V20H0V17Z" fill="white"/>
<path d="M0 20H35V22H0V20Z" fill="white"/>
<path d="M7 32H10V35H7V32Z" fill="white"/>
<path d="M10 32H12V35H10V32Z" fill="white"/>
<path d="M10 35H12V37H10V35Z" fill="white"/>
<path d="M12 32H15V35H12V32Z" fill="white"/>
<path d="M22 32H25V35H22V32Z" fill="white"/>
<path d="M22 35H25V37H22V35Z" fill="white"/>
<path d="M12 35H15V37H12V35Z" fill="white"/>
<path d="M20 32H22V35H20V32Z" fill="white"/>
<path d="M20 35H22V37H20V35Z" fill="white"/>
<path d="M22 32H25V35H22V32Z" fill="white"/>
<path d="M25 32H27V35H25V32Z" fill="white"/>
<path d="M30 32H32V35H30V32Z" fill="white"/>
<path d="M32 32H35V35H32V32Z" fill="white"/>
<path d="M32 35H35V37H32V35Z" fill="white"/>
<path d="M22 35H25V37H22V35Z" fill="white"/>
<path d="M9 9H11V11H9V9Z" fill="#222222"/>
<path d="M6 11H16V14H6V11Z" fill="#222222"/>
<path d="M6 14H11V16H6V14Z" fill="#222222"/>
<path d="M6 16H11V19H6V16Z" fill="#222222"/>
<path d="M9 19H14V21H9V19Z" fill="#222222"/>
<path d="M11 9H14V11H11V9Z" fill="#222222"/>
<path d="M11 14H16V19H11V14Z" fill="#5AA6FF"/>
<path d="M22 9H24V11H22V9Z" fill="#222222"/>
<path d="M19 11H29V14H19V11Z" fill="#222222"/>
<path d="M19 14H24V16H19V14Z" fill="#222222"/>
<path d="M19 16H24V19H19V16Z" fill="#222222"/>
<path d="M22 19H27V21H22V19Z" fill="#222222"/>
<path d="M24 9H27V11H24V9Z" fill="#222222"/>
<rect x="12" width="11" height="9" fill="white"/>
<rect x="7" y="2" width="20" height="7" fill="white"/>
<rect y="21" width="35" height="11" fill="white"/>
<rect y="19" width="9" height="11" fill="white"/>
<rect x="27" y="19" width="8" height="11" fill="white"/>
<path d="M24 14H29V19H24V14Z" fill="#5AA6FF"/>
<rect x="29" y="7" width="3" height="18" fill="white"/>
<rect x="2" y="7" width="4" height="22" fill="white"/>
<rect y="30" width="4" height="5" fill="white"/>
<rect x="7" y="30" width="8" height="5" fill="white"/>
<rect x="20" y="30" width="7" height="5" fill="white"/>
<rect x="30" y="30" width="5" height="5" fill="white"/>
<rect y="32" width="2" height="5" fill="white"/>
<rect x="10" y="32" width="5" height="5" fill="white"/>
<rect x="20" y="32" width="5" height="5" fill="white"/>
<rect x="32" y="32" width="3" height="5" fill="white"/>
</svg>
