<svg width="35" height="37" viewBox="0 0 35 37" fill="none" xmlns="http://www.w3.org/2000/svg">
<path d="M7 2H27V5H7V2Z" fill="white"/>
<path d="M12 0H22V2H12V0Z" fill="white"/>
<path d="M5 5H30V7H5V5Z" fill="white"/>
<path d="M2 7H32V10H2V7Z" fill="white"/>
<path d="M2 10H32V12H2V10Z" fill="white"/>
<path d="M2 12H32V15H2V12Z" fill="white"/>
<path d="M2 15H32V17H2V15Z" fill="white"/>
<path d="M0 17H35V20H0V17Z" fill="white"/>
<path d="M0 20H35V22H0V20Z" fill="white"/>
<path d="M0 22H35V25H0V22Z" fill="white"/>
<path d="M0 25H35V27H0V25Z" fill="white"/>
<path d="M0 27H35V30H0V27Z" fill="white"/>
<path d="M0 30H35V32H0V30Z" fill="white"/>
<path d="M0 32H2V35H0V32Z" fill="white"/>
<path d="M2 32H5V35H2V32Z" fill="white"/>
<path d="M7 32H10V35H7V32Z" fill="white"/>
<path d="M10 32H12V35H10V32Z" fill="white"/>
<path d="M10 35H12V37H10V35Z" fill="white"/>
<path d="M0 35H2V37H0V35Z" fill="white"/>
<path d="M12 32H15V35H12V32Z" fill="white"/>
<path d="M22 32H25V35H22V32Z" fill="white"/>
<path d="M22 35H25V37H22V35Z" fill="white"/>
<path d="M12 35H15V37H12V35Z" fill="white"/>
<path d="M20 32H22V35H20V32Z" fill="white"/>
<path d="M20 35H22V37H20V35Z" fill="white"/>
<path d="M22 32H25V35H22V32Z" fill="white"/>
<path d="M25 32H27V35H25V32Z" fill="white"/>
<path d="M30 32H32V35H30V32Z" fill="white"/>
<path d="M32 32H35V35H32V32Z" fill="white"/>
<path d="M32 35H35V37H32V35Z" fill="white"/>
<path d="M22 35H25V37H22V35Z" fill="white"/>
<path d="M10 10H12V12H10V10Z" fill="#222222"/>
<path d="M7 12H17V15H7V12Z" fill="#222222"/>
<path d="M7 15H12V17H7V15Z" fill="#222222"/>
<path d="M7 17H12V20H7V17Z" fill="#222222"/>
<path d="M10 20H15V22H10V20Z" fill="#222222"/>
<path d="M12 10H15V12H12V10Z" fill="#222222"/>
<path d="M12 15H17V20H12V15Z" fill="#5AA6FF"/>
<path d="M22 10H25V12H22V10Z" fill="#222222"/>
<path d="M20 12H30V15H20V12Z" fill="#222222"/>
<path d="M20 15H25V17H20V15Z" fill="#222222"/>
<path d="M20 17H25V20H20V17Z" fill="#222222"/>
<path d="M22 20H27V22H22V20Z" fill="#222222"/>
<path d="M25 10H27V12H25V10Z" fill="#222222"/>
<path d="M25 15H30V20H25V15Z" fill="#5AA6FF"/>
</svg>
